<?xml version="1.0" encoding="utf-8"?>
<!-- Generator: Adobe Illustrator 24.3.0, SVG Export Plug-In . SVG Version: 6.00 Build 0)  -->
<svg version="1.1" id="レイヤー_1" xmlns="http://www.w3.org/2000/svg" xmlns:xlink="http://www.w3.org/1999/xlink" x="0px"
	 y="0px" viewBox="0 0 200 121" style="enable-background:new 0 0 200 121;" xml:space="preserve">
<g>
	<g>
		<path d="M83.61,58.66l-26.97-6.39c-0.77-0.18-1.25-0.96-1.07-1.73l0,0c0.18-0.77,0.96-1.25,1.73-1.07l0,0l26.97,6.39
			c0.77,0.18,1.25,0.96,1.07,1.73l0,0c-0.16,0.66-0.75,1.11-1.4,1.11l0,0C83.83,58.7,83.72,58.69,83.61,58.66L83.61,58.66z"/>
		<path d="M55.57,57.59c-0.18-0.77,0.29-1.55,1.07-1.73l0,0l26.97-6.39c0.77-0.18,1.55,0.29,1.73,1.07l0,0
			c0.18,0.77-0.3,1.55-1.07,1.73l0,0L57.3,58.66c-0.11,0.03-0.22,0.04-0.33,0.04l0,0C56.32,58.7,55.73,58.25,55.57,57.59
			L55.57,57.59z"/>
	</g>
	<path d="M152.44,121c-0.61,0-1.22-0.02-1.85-0.06l0,0c-5.27-0.34-8.7-1.42-10.94-3.06l0,0c-2.25-1.63-3.11-3.92-3.08-5.91l0,0
		c0.03-2.15,0.81-4.03,1.46-5.22l0,0C117.23,94.9,95.8,91.43,77.84,91.43l0,0c-22,0-38.76,5.21-42.53,6.49l0,0
		c-0.54,0.18-0.8,0.28-0.78,0.27l0,0c-7.68,3.01-13.65,4.17-18.33,4.17l0,0c-6.87,0.02-11-2.58-13.22-5.28l0,0
		c-2.23-2.69-2.62-5.32-2.64-5.46l0,0C0.11,90.12,0,88.67,0,87.29l0,0c-0.01-6.11,2.25-10.94,5.6-14.55l0,0
		c3.34-3.62,7.7-6.06,12-7.76l0,0c5.7-2.24,11.34-3.17,14.52-3.55l0,0c-3.73-5.31-5.19-10.23-5.18-14.58l0,0
		c0-6.33,3.05-11.27,6-14.58l0,0c2.97-3.32,5.89-5.07,5.97-5.12l0,0l0,0c0.68-0.41,1.56-0.19,1.97,0.49l0,0
		c0.41,0.68,0.19,1.56-0.49,1.97l0,0c0,0-0.14,0.08-0.42,0.27l0,0c-0.28,0.19-0.7,0.48-1.2,0.87l0,0c-1,0.78-2.35,1.93-3.68,3.43
		l0,0c-2.68,3-5.27,7.3-5.27,12.66l0,0c0,4.18,1.55,9.13,6.13,14.87l0,0c0.34,0.42,0.41,1,0.19,1.49l0,0
		c-0.22,0.49-0.7,0.82-1.24,0.84l0,0c0,0-0.26,0.01-0.77,0.06l0,0c-0.51,0.04-1.26,0.12-2.19,0.23l0,0
		c-1.86,0.24-4.45,0.66-7.31,1.39l0,0c-5.73,1.46-12.53,4.18-16.9,8.94l0,0c-2.92,3.18-4.82,7.19-4.83,12.6l0,0
		c0,1.23,0.1,2.52,0.32,3.92l0,0c0,0,0,0,0.01,0.04l0,0c0.01,0.05,0.03,0.13,0.05,0.23l0,0c0.05,0.21,0.14,0.53,0.29,0.92l0,0
		c0.29,0.77,0.8,1.82,1.66,2.86l0,0c1.74,2.06,4.83,4.22,11,4.25l0,0c4.21,0,9.84-1.05,17.3-3.98l0,0
		c0.1-0.04,18.68-6.95,44.34-6.95l0,0c18.7,0,41.18,3.68,62.92,16.45l0,0c0.35,0.2,0.6,0.56,0.68,0.95l0,0
		c0.08,0.4-0.01,0.82-0.25,1.14l0,0c0,0-0.01,0.02-0.06,0.08l0,0c-0.05,0.06-0.11,0.17-0.2,0.3l0,0c-0.17,0.27-0.39,0.65-0.62,1.12
		l0,0c-0.45,0.94-0.88,2.19-0.87,3.36l0,0c0.03,1.29,0.39,2.44,1.91,3.6l0,0c1.54,1.15,4.45,2.19,9.41,2.5l0,0
		c0.56,0.04,1.12,0.05,1.67,0.05l0,0c7.16-0.01,12.83-2.98,16.79-7.3l0,0c3.95-4.31,6.12-10,6.11-15.23l0,0
		c0-2.26-0.4-4.44-1.21-6.4l0,0c-0.29-0.7,0.01-1.51,0.7-1.84l0,0c0,0,0.78-0.38,2.08-1.09l0,0c1.3-0.71,3.1-1.73,5.1-3l0,0
		c3.99-2.52,8.77-6.03,11.84-9.76l0,0c2.06-2.48,3.29-5.01,3.28-7.26l0,0c0-1.15-0.29-2.27-1-3.44l0,0l-0.08-0.16l0,0l0,0l0,0l0,0
		c-0.01-0.02-0.03-0.06-0.07-0.11l0,0c-0.08-0.11-0.23-0.29-0.47-0.48l0,0c-0.48-0.37-1.33-0.83-3.01-0.83l0,0
		c-3.84-0.04-12.05,2.72-27.21,15.47l0,0c-0.51,0.42-1.23,0.45-1.77,0.06l0,0c0,0-0.31-0.23-0.96-0.65l0,0
		c-0.65-0.43-1.61-1.04-2.86-1.78l0,0c-2.5-1.47-6.16-3.45-10.74-5.42l0,0c-9.17-3.95-22.05-7.89-36.84-7.89l0,0
		c-1.5,0-3.03,0.04-4.56,0.13l0,0c-0.65,0.04-1.25-0.37-1.45-0.99l0,0c-0.2-0.62,0.03-1.3,0.58-1.65l0,0c0,0,0.01-0.01,0.06-0.04
		l0,0c0.05-0.04,0.13-0.09,0.24-0.17l0,0c0.21-0.16,0.53-0.4,0.9-0.72l0,0c0.76-0.64,1.78-1.61,2.8-2.87l0,0
		c2.04-2.54,4.03-6.2,4.03-10.91l0,0c0-3.22-0.92-6.98-3.51-11.32l0,0c-0.41-0.68-0.19-1.56,0.5-1.97l0,0
		c0.68-0.41,1.56-0.19,1.97,0.5l0,0c2.82,4.71,3.92,9.01,3.91,12.79l0,0c0,5.55-2.35,9.85-4.66,12.72l0,0
		c-0.49,0.61-0.98,1.16-1.45,1.65l0,0c0.21,0,0.42,0,0.63,0l0,0c27.04,0.02,47.63,12.65,52.16,15.65l0,0
		c14.87-12.31,23.18-15.41,28.22-15.45l0,0c2.23-0.01,3.82,0.68,4.79,1.45l0,0c0.81,0.64,1.2,1.3,1.35,1.59l0,0
		c0.94,1.56,1.38,3.23,1.38,4.87l0,0c-0.01,3.29-1.67,6.33-3.94,9.09l0,0c-2.28,2.76-5.25,5.27-8.2,7.42l0,0
		c-4.32,3.15-8.61,5.53-10.61,6.58l0,0c0.65,1.99,0.97,4.11,0.97,6.25l0,0c-0.01,6.02-2.43,12.32-6.87,17.18l0,0
		c-4.42,4.85-10.91,8.23-18.89,8.23l0,0C152.46,121,152.45,121,152.44,121L152.44,121z"/>
	<path d="M88.19,30.91c-0.5-0.34-0.98-0.71-1.44-1.1l0,0c-2.77,0.39-5.83,0.6-9.17,0.67l0,0c-0.29,0-0.57,0.01-0.86,0.01l0,0
		c-6.32,0-11.39-1.44-15.25-3.6l0,0c-0.21,0.09-0.41,0.19-0.62,0.28l0,0c-5.92,2.55-11.69,2.92-11.78,2.93l0,0H49
		c-0.57,0.01-1.13,0.02-1.67,0.02l0,0C37.97,30.1,33.16,28.45,31,27.19l0,0l0,0c-0.69-0.4-0.91-1.28-0.51-1.97l0,0
		c0.4-0.68,1.28-0.91,1.97-0.51l0,0c1.48,0.88,5.87,2.53,14.87,2.52l0,0c0.51,0,1.03,0,1.57-0.01l0,0c0.05,0,0.21-0.02,0.48-0.04
		l0,0c0.34-0.04,0.84-0.1,1.46-0.19l0,0c1.25-0.19,2.98-0.52,4.89-1.06l0,0c0.92-0.26,1.89-0.58,2.86-0.95l0,0
		c-0.1-0.08-0.2-0.15-0.29-0.23l0,0c-4.04-3.28-6.09-7.33-6.19-10.76l0,0c-0.05-0.56-0.07-1.12-0.07-1.67l0,0
		c0-2.77,0.61-5.57,2.37-7.76l0,0c1.76-2.2,4.67-3.57,8.58-3.55l0,0c0.24,0,0.48,0,0.73,0.01l0,0c4.09,0.13,6.66,1.92,7.93,3.96l0,0
		c1.28,2.02,1.4,4.08,1.4,4.98l0,0c0,0.18-0.01,0.31-0.01,0.39l0,0c0,0.11,0,0.22,0,0.34l0,0c0.01,4.44-1.56,8.01-3.88,10.68l0,0
		c-1.34,1.55-2.92,2.82-4.58,3.86l0,0c3.17,1.43,7.19,2.37,12.15,2.38l0,0c0.26,0,0.54,0,0.81-0.01l0,0
		c2.45-0.05,4.74-0.18,6.84-0.4l0,0c-1.4-1.98-2.24-4.3-2.29-6.88l0,0c0-0.17-0.01-0.33-0.01-0.49l0,0
		c-0.04-5.9,2.41-9.34,5.02-10.98l0,0c2.53-1.61,4.99-1.69,5.51-1.7l0,0c0.11-0.01,0.35-0.02,0.69-0.02l0,0
		c1.16,0.01,3.49,0.13,5.75,1.28l0,0c2.26,1.11,4.39,3.57,4.42,7.44l0,0c0,0.14,0.01,0.28,0.01,0.42l0,0
		c0.01,2.51-0.65,4.74-1.92,6.59l0,0c-1.27,1.85-3.12,3.28-5.39,4.37l0,0c-1.61,0.77-3.45,1.38-5.48,1.86l0,0
		c2.93,1.74,6.8,2.77,10.97,2.76l0,0c4.74,0,9.86-1.31,14.45-4.26l0,0c0.67-0.43,1.56-0.23,1.99,0.43l0,0
		c0.43,0.67,0.23,1.56-0.43,1.99l0,0c-5.08,3.26-10.74,4.71-16,4.71l0,0C96.54,34.72,91.78,33.38,88.19,30.91L88.19,30.91z
		 M88.65,11.26c-1.82,1.21-3.67,3.39-3.71,8.57l0,0c0,0.14,0,0.27,0.01,0.42l0,0c0.06,2.5,1.04,4.68,2.76,6.49l0,0
		c1.42-0.24,2.73-0.53,3.92-0.88l0,0c3.68-1.07,6.17-2.63,7.55-4.64l0,0c0.92-1.35,1.42-2.93,1.42-4.96l0,0c0-0.11,0-0.24-0.01-0.36
		l0,0c-0.11-2.9-1.31-4.09-2.86-4.94l0,0C96.17,10.15,94.21,10,93.3,10l0,0c-0.17,0-0.31,0-0.39,0.01l0,0
		c-0.09,0-0.11,0.01-0.11,0.01l0,0h-0.15l0,0c-0.01,0-0.02,0-0.04,0l0,0C92.3,10.02,90.39,10.13,88.65,11.26L88.65,11.26z
		 M62.98,3.88c-3.3,0.02-5.15,1.03-6.34,2.48l0,0c-1.19,1.46-1.73,3.59-1.73,5.95l0,0c0,0.49,0.02,0.98,0.07,1.47l0,0v0.1
		c0.02,2.29,1.6,5.78,5.12,8.62l0,0c0.47,0.38,0.97,0.75,1.51,1.1l0,0c2.01-1.06,3.89-2.41,5.36-4.12l0,0
		c1.92-2.24,3.18-5.03,3.19-8.8l0,0c0-0.11,0-0.23,0-0.35l0,0v-0.14c0,0,0,0,0-0.04l0,0c0-0.04,0-0.11,0-0.2l0,0
		c0.01-0.6-0.12-2.15-0.95-3.43l0,0c-0.84-1.27-2.25-2.47-5.61-2.63l0,0c-0.19-0.01-0.37-0.01-0.55-0.01l0,0
		C63.02,3.88,63,3.88,62.98,3.88L62.98,3.88z"/>
	<g>
		<path d="M15.39,20.54c-0.56-0.14-1.87-0.58-2.91-0.98c-1.06-0.42-1.57-0.7-1.92-1.07c-0.26-0.28-0.37-0.62-0.32-0.96
			c0.04-0.25,0.1-0.46,0.25-0.82c0.04-0.09,0.08-0.2,0.14-0.36c0.4-0.95,0.44-1.07,0.69-1.7c0.62-1.58,0.82-2.16,0.91-2.63
			l1.08,0.73c-0.15,0.34-0.86,2.16-0.91,2.29c1.76,0.16,3.35,0.17,4.36-0.12l-0.49,1.35c-1.58,0-2.93,0.02-4.31-0.14
			c-0.45,1.14-0.51,1.32-0.48,1.47c0.05,0.27,0.43,0.52,1.31,0.86c0.86,0.34,1.41,0.51,3.01,0.94L15.39,20.54z"/>
		<path d="M22.86,19.81l-1.42,2.45c-0.02,0.02-0.02,0.02-0.03,0.04c0.68,0.27,0.98,0.38,1.32,0.48l-0.39,0.79
			c-0.25-0.11-1.3-0.54-2.03-0.82c-1.19-0.47-2.25-0.89-2.59-0.98l0.16-0.91c0.52,0.26,0.57,0.29,2.67,1.11
			c0.04-0.06,0.04-0.06,0.07-0.12c0.29-0.44,0.63-1.05,0.96-1.68l-1.77-0.69l0.18-0.88c0.24,0.16,0.7,0.36,1.23,0.57L22.86,19.81z"
			/>
		<g>
			<path d="M25.4,22.35c-0.01-0.33-0.07-0.92-0.12-1.1c-0.04-0.18-0.06-0.26-0.06-0.31l0.84-0.13c0.04,0.09,0.08,0.23,0.12,0.46
				c0.08,0.4,0.14,0.84,0.13,1.02L25.4,22.35z M24.91,24.56c1.4-0.16,2.29-0.53,3.22-1.31c0.52-0.45,0.96-0.97,1.16-1.4l0.74,0.83
				c-1.03,1.01-2.02,1.84-2.88,2.22c-0.47,0.21-1.37,0.45-1.72,0.5L24.91,24.56z"/>
			<path d="M27,22.53c-0.01-0.33-0.07-0.92-0.12-1.1c-0.04-0.18-0.06-0.26-0.06-0.31l0.84-0.13c0.04,0.09,0.08,0.23,0.12,0.46
				c0.09,0.4,0.14,0.84,0.13,1.02L27,22.53z"/>
		</g>
	</g>
	<path d="M63.31,43.51c0,1.42-1.15,2.57-2.57,2.57s-2.57-1.15-2.57-2.57s1.15-2.57,2.57-2.57S63.31,42.09,63.31,43.51z"/>
	<path d="M82.88,43.51c0,1.42-1.15,2.57-2.57,2.57s-2.57-1.15-2.57-2.57s1.15-2.57,2.57-2.57C81.72,40.94,82.88,42.09,82.88,43.51z"
		/>
	<path d="M73.03,53.87c0,1.42-1.15,2.57-2.57,2.57s-2.57-1.15-2.57-2.57s1.15-2.57,2.57-2.57C71.88,51.29,73.03,52.44,73.03,53.87z"
		/>
</g>
</svg>
