<?xml version="1.0" encoding="utf-8"?>
<!-- Generator: Adobe Illustrator 24.3.0, SVG Export Plug-In . SVG Version: 6.00 Build 0)  -->
<svg version="1.1" id="レイヤー_1" xmlns="http://www.w3.org/2000/svg" xmlns:xlink="http://www.w3.org/1999/xlink" x="0px"
	 y="0px" viewBox="0 0 200 21" style="enable-background:new 0 0 200 21;" xml:space="preserve">
<style type="text/css">
	.st0{fill:#221E1F;}
</style>
<g>
	<path class="st0" d="M6.59,4.38h0.33l6.6,16.24H9.99l-0.64-1.69H4.16l-0.61,1.69H0L6.59,4.38z M8.19,15.99l-1.43-4.08L5.3,15.99
		H8.19z"/>
	<path class="st0" d="M27.62,4.68c10.78,0,10.78,16.15,0,16.15C16.84,20.83,16.84,4.68,27.62,4.68z M27.62,7.91
		c-6.27,0-6.27,9.69,0,9.69S33.89,7.91,27.62,7.91z"/>
	<path class="st0" d="M46.85,13.56L41.4,4.95h3.81l3.2,5.39l3.2-5.39h3.83l-5.48,8.61v7.06h-3.11V13.56z"/>
	<path class="st0" d="M66.81,4.38h0.33l6.59,16.24H70.2l-0.64-1.69h-5.19l-0.61,1.69h-3.55L66.81,4.38z M68.41,15.99l-1.43-4.08
		l-1.47,4.08H68.41z"/>
	<path class="st0" d="M93.66,4.71h0.99v15.91h-3.18l0.02-8.74l-4.01,4.21l-4.01-4.21v8.74H80.3V4.71h1.01l6.18,6.88L93.66,4.71z"/>
	<path class="st0" d="M107.74,4.38h0.33l6.6,16.24h-3.53l-0.63-1.69h-5.19l-0.61,1.69h-3.55L107.74,4.38z M109.34,15.99l-1.43-4.08
		l-1.47,4.08H109.34z"/>
	<path class="st0" d="M129.06,20.61v-6.27h-4.69v6.27h-3.13V4.95h3.13v6.27h4.69V4.95h3.13v15.67H129.06z"/>
	<path class="st0" d="M148.29,0.5c0.94,0,1.69,0.7,1.69,1.67c0,0.92-0.75,1.6-1.69,1.62c-0.9,0-1.69-0.7-1.69-1.62
		C146.6,1.2,147.39,0.5,148.29,0.5z M143.16,0.5c0.94,0,1.69,0.7,1.69,1.67c0,0.92-0.75,1.62-1.69,1.62
		c-0.92-0.02-1.69-0.7-1.69-1.62C141.47,1.2,142.24,0.5,143.16,0.5z M140,15.16V4.95h3.13v10.19c0,3.29,5.08,3.29,5.08,0V4.95h3.11
		v10.21C151.33,22.61,140,22.61,140,15.16z"/>
	<path class="st0" d="M161.76,20.61V8.08h-3.9V4.97h10.93v3.11h-3.9v12.53H161.76z"/>
	<path class="st0" d="M178.12,20.61V8.08h-3.9V4.97h10.93v3.11h-3.9v12.53H178.12z"/>
	<path class="st0" d="M191.89,20.61V4.95h7.84v3.13h-4.71v3.13h4.12v3.13h-4.12v3.13H200v3.13H191.89z"/>
</g>
</svg>
