<?xml version="1.0" encoding="utf-8"?>
<!-- Generator: Adobe Illustrator 24.3.0, SVG Export Plug-In . SVG Version: 6.00 Build 0)  -->
<svg version="1.1" id="レイヤー_1" xmlns="http://www.w3.org/2000/svg" xmlns:xlink="http://www.w3.org/1999/xlink" x="0px"
	 y="0px" viewBox="0 0 200 83" style="enable-background:new 0 0 200 83;" xml:space="preserve">
<g>
	<g>
		<path d="M32,51.4c1.8-2.6,2.1-3.7,2.3-5.6c0.1-1.8-0.3-3.2-1.5-4.3c-1.7-1.7-3.9-1.9-6-0.7c1.6,4.1,2.1,6.3,2.2,9.3
			c0.5,0.2,0.7,0.4,2.1,0.9l-0.8,3.2c-0.9-0.3-1.2-0.4-1.6-0.6c-0.4,2.1-1.2,3.8-2.5,5.1c-1.4,1.4-3.5,1.2-5.2-0.4
			c-2.6-2.6-3.2-7-1.7-11.7c-1.1-1.1-2-2-2.4-2.5c-0.9,1-1.8,1.9-2.6,2.7l-2.4-1.8c1-0.9,0.7-0.5,1.2-1.1c0.5-0.5,1.3-1.3,1.9-2
			c-1.1-1.3-1.5-1.7-1.9-2.2l2.8-2.1c0.2,0.6,0.6,1.2,1.2,2c1.2-1.4,2.6-3.2,3.1-4c0.5-0.8,0.8-1.3,0.9-1.4l2,1.9
			c-1,1.5-2.2,3.3-4.2,5.7c0.1,0.1,0.1,0.1,0.3,0.4c0.3,0.4,0.4,0.5,1.4,1.5c0.7-1.1,1.4-2,2.4-3.1c-0.5-0.8-0.7-1-1.1-1.5l2.6-2.1
			l1,1.6c3.3-2.1,7-1.8,9.5,0.8c2.3,2.3,2.8,5.3,1.7,8.9c-0.4,1.3-1.2,3-1.7,3.4L32,51.4z M22.9,55.7c0.5,0.5,1.1,0.5,1.7,0
			c0.7-0.7,1.3-2,1.5-3.7c-1.7-1.1-2.8-2-4.4-3.4C21.1,51.8,21.6,54.4,22.9,55.7z M24.4,42.7c-0.9,1-1.3,1.6-1.8,2.7
			c1.5,1.4,2.2,2,3.4,2.9C25.8,46.3,25.3,44.7,24.4,42.7z"/>
		<path d="M51.1,29.7c1.2-0.5,1.7-1,2.5-1.8c1.6-1.6,1.7-3.4,0.2-4.8c-1.4-1.4-3.2-1.4-4.6,0c-1.3,1.3-2.5,3.4-3.6,5.9
			c0.1,0.1,0.1,0.1,0.9,0.9c1.4,1.3,1.4,1.3,1.7,1.6c0.4,0.4,0.8,0.7,1,0.9c1.7,1.7,1.8,3.1,0.5,4.5c-1.3,1.3-3.4,2-5.3,1.7
			c-0.8-0.1-1.4-0.4-2-1c-1.3-1.3-1.4-3.8-0.1-7.7l-3.3-3.3c-1.5,1.8-1.9,2.2-2.8,3.2L33.7,28c0.4-0.4,0.1-0.1,0.3-0.3
			c1-1,1.9-2,2.9-3.3L36.5,24c-1.3-1.3-2.5-2.3-3.8-3.2l2.9-2.4l3.2,3.5c0.6-0.8,1.6-2.4,2.2-3.5l2.1,2.2c-0.1,0.3-1.2,2-2.3,3.5
			l2.7,2.7c1.4-2.7,2.6-4.7,4-6c2.7-2.7,6.1-2.7,8.7,0c1.7,1.7,2.4,3.8,1.9,5.7c-0.3,1-1,2.2-2,3.2c-1,1-2,1.8-2.4,1.9L51.1,29.7z
			 M44.6,32.1c-0.5,1.9-0.5,2.9-0.1,3.3c0.5,0.5,1.7,0.3,2.3-0.3c0.3-0.3,0.2-0.6-0.3-1.1L44.6,32.1z M51.5,15.8
			c-2.2-0.1-4.6,0.5-6.4,1.4l-0.8-2.8c0.2-0.2,1.3-0.7,2.1-1c1.6-0.6,4.1-1,5-0.8L51.5,15.8z"/>
	</g>
	<g>
		<path d="M97.3,33.6h-3.2H77.6h-3.2V19h3.2v11.5h6.4V11.8h3.3v18.7h6.8V18.9h3.2L97.3,33.6L97.3,33.6z"/>
	</g>
	<g>
		<path d="M48.5,58.3c-0.2,0.1-0.4,0-0.4-0.2l-2.9-6.7c-0.1-0.2,0-0.4,0.2-0.4c0.1,0,0.2,0,0.3,0l6.7,2.9c0.2,0.1,0.2,0.3,0.2,0.4
			c-0.1,0.2-0.3,0.2-0.4,0.2l-5.9-2.6l2.6,5.9C48.7,58.1,48.6,58.2,48.5,58.3z M48.3,55.3c-0.1-0.1-0.1-0.3,0-0.5l0.3-0.3l-0.7-0.3
			c-0.2-0.1-0.2-0.3-0.2-0.4c0.1-0.2,0.3-0.2,0.4-0.2l1.2,0.5c0,0,0.1,0,0.1,0.1c0.1,0.1,0.1,0.3,0,0.5l-0.7,0.7
			C48.6,55.4,48.4,55.4,48.3,55.3z M49.5,57.3c-0.2,0.1-0.4,0-0.4-0.2l-0.3-0.6c0-0.1,0-0.3,0.1-0.4l1.4-1.4
			c0.1-0.1,0.3-0.1,0.4-0.1l0.6,0.2c0.2,0.1,0.2,0.3,0.2,0.4c-0.1,0.2-0.3,0.2-0.4,0.2l-0.4-0.2l-1.1,1.1l0.2,0.4
			C49.7,57,49.6,57.2,49.5,57.3z"/>
		<path d="M55.9,44.8c-0.1,0.2-0.3,0.2-0.5,0.1c-0.6-0.3-1.3-0.4-1.9-0.3c-0.6,0.1-1.2,0.4-1.7,0.9c-2.9,2.9,1.5,7.3,4.4,4.4
			c0.5-0.5,0.8-1.1,0.9-1.7c0.1-0.7,0-1.3-0.3-1.9c-0.1-0.2,0-0.4,0.1-0.5s0.4,0,0.5,0.1c0.4,0.7,0.5,1.5,0.4,2.3
			c-0.1,0.8-0.5,1.5-1.1,2.1c-3.5,3.5-8.9-1.8-5.3-5.3c0.6-0.6,1.3-1,2.1-1.1c0.8-0.1,1.6,0,2.3,0.4C55.9,44.5,56,44.7,55.9,44.8z
			 M53.1,49.7c0.1-0.2,0.2-0.3,0.4-0.2c0.3,0.1,0.6,0.1,0.9,0c0.3-0.1,0.5-0.2,0.8-0.4c0.3-0.3,0.5-0.8,0.5-1.2
			c0-0.4-0.2-0.9-0.5-1.2c-0.3-0.3-0.8-0.5-1.2-0.5c-0.4,0-0.9,0.2-1.2,0.5c-0.2,0.2-0.4,0.5-0.4,0.7c-0.1,0.3-0.1,0.6,0,0.9
			c0.1,0.2,0,0.4-0.2,0.4c-0.2,0-0.4-0.1-0.4-0.2c-0.1-0.4-0.1-0.8,0-1.2c0.1-0.4,0.3-0.8,0.6-1.1c0.5-0.5,1.1-0.7,1.7-0.7
			c0.6,0,1.2,0.2,1.7,0.7c0.5,0.5,0.7,1.1,0.7,1.7c0,0.6-0.2,1.2-0.7,1.7c-0.3,0.3-0.7,0.5-1.1,0.6c-0.4,0.1-0.8,0.1-1.2,0
			C53.2,50,53.1,49.8,53.1,49.7z"/>
	</g>
	<g>
		<path d="M72.8,48.4c-0.2,0-0.3-0.1-0.3-0.3v-3l-2.3-3.6c-0.1-0.2,0-0.4,0.1-0.5c0.1-0.1,0.4-0.1,0.5,0.1l2.3,3.7
			c0,0.1,0.1,0.1,0.1,0.2v3.1C73.2,48.3,73,48.4,72.8,48.4z M71.9,41.5c-0.1-0.2,0-0.4,0.1-0.5c0.1-0.1,0.4,0,0.4,0.1l1.1,1.8
			l1.1-1.8c0.1-0.2,0.3-0.2,0.5-0.1c0.2,0.1,0.2,0.3,0.1,0.5l-1.3,2.3c-0.1,0.3-0.4,0.2-0.6,0L71.9,41.5z M76.6,41
			c0.1,0.1,0.2,0.3,0.1,0.5l-2.2,3.6v3c0,0.2-0.2,0.3-0.3,0.3c-0.2,0-0.3-0.1-0.3-0.3V45c0-0.1,0-0.1,0-0.2l2.3-3.7
			C76.3,40.9,76.5,40.9,76.6,41z"/>
		<path d="M78.2,48.3C78,48.2,77.9,48,78,47.8l2.7-6.7c0.1-0.2,0.3-0.3,0.4-0.2c0.1,0,0.2,0.1,0.2,0.2l2.7,6.7
			c0.1,0.2,0,0.4-0.2,0.4c-0.2,0.1-0.4,0-0.4-0.2l-2.4-6l-2.4,6C78.5,48.2,78.3,48.3,78.2,48.3z M79.6,48.3
			c-0.2-0.1-0.2-0.3-0.2-0.4l0.2-0.6c0.1-0.1,0.2-0.2,0.3-0.2h2c0.1,0,0.3,0.1,0.3,0.2l0.2,0.6c0.1,0.2,0,0.4-0.2,0.4
			c-0.2,0.1-0.4,0-0.4-0.2l-0.2-0.4h-1.6L80,48.1C80,48.2,79.8,48.3,79.6,48.3z M80.2,46c0-0.2,0.1-0.3,0.3-0.3H81L80.7,45
			c-0.1-0.2,0-0.4,0.2-0.4c0.2-0.1,0.4,0,0.4,0.2l0.5,1.2c0,0,0,0.1,0,0.1c0,0.2-0.2,0.3-0.3,0.3h-1C80.3,46.4,80.2,46.2,80.2,46z"
			/>
		<path d="M86.3,48.3c-0.2,0-0.3-0.1-0.3-0.3v-6.7c0-0.2,0.1-0.3,0.3-0.3c0.2,0,0.3,0.1,0.3,0.3V48C86.7,48.2,86.5,48.3,86.3,48.3z
			 M91.9,41c0.1,0.1,0.2,0.3,0.1,0.5l-2.1,3c-0.1,0.2-0.3,0.2-0.5,0.1c0,0-0.1,0-0.1-0.1l-2.1-3c-0.1-0.1-0.1-0.4,0.1-0.5
			s0.4-0.1,0.5,0.1l1.8,2.6l1.8-2.6C91.6,41,91.8,40.9,91.9,41z M91.6,48.3c-0.2,0-0.3-0.1-0.3-0.3v-3.1l-1.4,1.9
			c-0.1,0.1-0.3,0.2-0.5,0.1c0,0-0.1-0.1-0.1-0.1L88,44.9V48c0,0.2-0.1,0.3-0.3,0.3c-0.2,0-0.3-0.1-0.3-0.3v-4.2
			c0-0.1,0-0.2,0.1-0.3c0.1-0.1,0.4-0.1,0.5,0.1l1.7,2.4l1.7-2.4c0.1-0.1,0.2-0.1,0.3-0.1c0.2,0,0.3,0.1,0.3,0.3V48
			C92,48.2,91.8,48.3,91.6,48.3z M92.9,48.3c-0.2,0-0.3-0.1-0.3-0.3v-6.7c0-0.2,0.1-0.3,0.3-0.3c0.2,0,0.3,0.1,0.3,0.3V48
			C93.3,48.2,93.1,48.3,92.9,48.3z"/>
		<path d="M95.4,48.3c-0.2-0.1-0.2-0.3-0.2-0.4l2.7-6.7c0.1-0.2,0.3-0.3,0.4-0.2c0.1,0,0.2,0.1,0.2,0.2l2.7,6.7
			c0.1,0.2,0,0.4-0.2,0.4c-0.2,0.1-0.4,0-0.4-0.2l-2.4-6l-2.4,6C95.8,48.2,95.6,48.3,95.4,48.3z M96.9,48.3
			c-0.2-0.1-0.2-0.3-0.2-0.4l0.2-0.6c0.1-0.1,0.2-0.2,0.3-0.2h2c0.1,0,0.3,0.1,0.3,0.2l0.2,0.6c0.1,0.2,0,0.4-0.2,0.4
			c-0.2,0.1-0.4,0-0.4-0.2l-0.2-0.4h-1.6l-0.2,0.4C97.2,48.2,97,48.3,96.9,48.3z M97.5,46c0-0.2,0.1-0.3,0.3-0.3h0.5L98,45
			c-0.1-0.2,0-0.4,0.2-0.4c0.2-0.1,0.4,0,0.4,0.2l0.5,1.2c0,0,0,0.1,0,0.1c0,0.2-0.2,0.3-0.3,0.3h-1C97.6,46.4,97.5,46.2,97.5,46z"
			/>
	</g>
	<g>
		<path d="M119.8,57.7c-0.1-0.1-0.1-0.3,0-0.5l4.7-4.7c0.1-0.1,0.3-0.1,0.5,0c0.1,0.1,0.1,0.3,0,0.5l-4.7,4.7
			C120.1,57.9,119.9,57.8,119.8,57.7z M122.2,60.1c-0.1-0.1-0.1-0.3,0-0.5l1.6-1.6l-0.9-0.9l-1.6,1.6c-0.1,0.1-0.3,0.1-0.5,0
			c-0.1-0.1-0.1-0.3,0-0.5l1.9-1.9c0.1-0.1,0.3-0.1,0.5,0l1.4,1.4c0.1,0.1,0.1,0.3,0,0.5l-1.9,1.9C122.5,60.2,122.3,60.2,122.2,60.1
			z M128.2,55.8c0.1,0.1,0.1,0.3,0,0.5l-4.7,4.7c-0.1,0.1-0.3,0.1-0.5,0c-0.1-0.1-0.1-0.3,0-0.5l4.7-4.7
			C127.9,55.7,128.1,55.7,128.2,55.8z M125.9,53.5c0.1,0.1,0.1,0.3,0,0.5l-1.6,1.6l0.9,0.9l1.6-1.6c0.1-0.1,0.3-0.1,0.5,0
			c0.1,0.1,0.1,0.3,0,0.5l-1.9,1.9c-0.1,0.1-0.3,0.1-0.5,0l-1.4-1.4c-0.1-0.1-0.1-0.3,0-0.5l1.9-1.9
			C125.5,53.4,125.8,53.4,125.9,53.5z"/>
		<path d="M127,61.2l3-3c0.1-0.1,0.3-0.1,0.5,0c0.1,0.1,0.1,0.3,0,0.5l-3,3c-2,2,1,5,3,3l3-3c0.1-0.1,0.3-0.1,0.5,0
			c0.1,0.1,0.1,0.3,0,0.5l-3,3C128.3,67.7,124.4,63.7,127,61.2z M131,59.1c0.1-0.1,0.3-0.1,0.5,0c0.1,0.1,0.1,0.3,0,0.5l-3,3
			c-0.7,0.7,0.3,1.8,1.1,1.1l3-3c0.1-0.1,0.3-0.1,0.5,0c0.1,0.1,0.1,0.3,0,0.5l-3,3c-1.4,1.4-3.4-0.7-2-2L131,59.1z"/>
		<path d="M134.4,64.4c0.1-0.1,0.3-0.1,0.5,0l1.2,1.2c0.1,0.1,0.1,0.3,0,0.5l-3.7,3.7c-0.1,0.1-0.3,0.1-0.5,0
			c-0.1-0.1-0.1-0.3,0-0.5l3.5-3.5l-0.9-0.9C134.3,64.7,134.3,64.5,134.4,64.4z M138.1,68.1c-0.1,0.1-0.3,0.1-0.4,0l-0.9-0.9
			l-3.5,3.5c-0.1,0.1-0.3,0.1-0.5,0c-0.1-0.1-0.1-0.3,0-0.5l3.7-3.7c0.1-0.1,0.3-0.1,0.5,0l1.2,1.2C138.3,67.8,138.3,68,138.1,68.1z
			 M135.3,63.4c0.1-0.1,0.3-0.1,0.5,0l3.3,3.3c0.1,0.1,0.1,0.3,0,0.5c-0.1,0.1-0.3,0.1-0.5,0l-3.3-3.3
			C135.2,63.8,135.2,63.6,135.3,63.4z"/>
		<path d="M139.2,69.1c0.1-0.1,0.3-0.1,0.5,0l1.2,1.2c0.1,0.1,0.1,0.3,0,0.5l-3.7,3.7c-0.1,0.1-0.3,0.1-0.5,0
			c-0.1-0.1-0.1-0.3,0-0.5l3.5-3.5l-0.9-0.9C139,69.5,139,69.3,139.2,69.1z M142.9,72.9c-0.1,0.1-0.3,0.1-0.4,0l-0.9-0.9l-3.5,3.5
			c-0.1,0.1-0.3,0.1-0.5,0c-0.1-0.1-0.1-0.3,0-0.5l3.7-3.7c0.1-0.1,0.3-0.1,0.5,0l1.2,1.2C143,72.5,143,72.7,142.9,72.9z
			 M140.1,68.2c0.1-0.1,0.3-0.1,0.5,0l3.3,3.3c0.1,0.1,0.1,0.3,0,0.5c-0.1,0.1-0.3,0.1-0.5,0l-3.3-3.3C140,68.5,140,68.3,140.1,68.2
			z"/>
		<path d="M143.5,80.9c-0.1,0.1-0.3,0.1-0.5,0l-2.4-2.4c-0.1-0.1-0.1-0.3,0-0.5l4.7-4.7c0.1-0.1,0.3-0.1,0.5,0l2.4,2.4
			c0.1,0.1,0.1,0.3,0,0.5c-0.1,0.1-0.3,0.1-0.5,0l-2.2-2.2l-4.2,4.2l2.2,2.2C143.6,80.6,143.6,80.8,143.5,80.9z M144.9,78.6
			c-0.1,0.1-0.3,0.1-0.5,0l-0.8-0.8l-0.5,0.5l1.3,1.3c0.1,0.1,0.1,0.3,0,0.5c-0.1,0.1-0.3,0.1-0.5,0l-1.5-1.5
			c-0.1-0.1-0.1-0.3,0-0.5l0.9-0.9c0.1-0.1,0.3-0.1,0.5,0l1.1,1.1C145.1,78.3,145.1,78.5,144.9,78.6z M147.2,77.2
			c-0.1,0.1-0.3,0.1-0.5,0l-1.3-1.3l-0.5,0.5l0.8,0.8c0.1,0.1,0.1,0.3,0,0.5c-0.1,0.1-0.3,0.1-0.5,0l-1.1-1.1
			c-0.1-0.1-0.1-0.3,0-0.5l0.9-0.9c0.1-0.1,0.3-0.1,0.5,0l1.5,1.5C147.4,76.9,147.4,77.1,147.2,77.2z"/>
	</g>
	<g>
		<path d="M124.1,38.7c-1.4-1.1-4.4-3.8-6.8-6.2c-2.4-2.4-3.5-3.8-4-5.2c-0.4-1.1-0.3-2.1,0.3-3c0.4-0.6,0.8-1.1,1.7-2
			c0.2-0.2,0.5-0.5,0.8-0.8c2.2-2.1,2.5-2.4,3.9-3.8c3.6-3.6,4.8-4.9,5.6-6.1l2.1,3.3c-0.8,0.8-4.9,4.9-5.2,5.2
			c4.6,2.5,9,4.5,12.1,4.9l-2.9,3.1c-4.3-1.9-8-3.4-11.6-5.5c-2.6,2.6-3,3-3.1,3.4c-0.2,0.8,0.6,1.9,2.6,3.9c2,2,3.3,3.1,7.1,6.2
			L124.1,38.7z"/>
		<path d="M145.4,45.6l-6.8,5c-0.1,0-0.1,0-0.1,0.1c1.5,1.5,2.2,2.2,3,2.9l-2,1.7c-0.5-0.6-2.9-3-4.6-4.7c-2.7-2.7-5.1-5.1-5.9-5.8
			l1.5-2.3c1.1,1.3,1.2,1.5,6,6.2c0.2-0.1,0.2-0.1,0.3-0.2c1.3-0.9,3-2.1,4.6-3.5l-4-4l1.6-2.2c0.5,0.7,1.5,1.8,2.7,3L145.4,45.6z"
			/>
		<path d="M160.6,75.4c5.4,2,8.7,1.3,12.7-2.4c-3.4-3.3-4.5-4.5-6.2-6c-0.2-0.2-0.6-0.6-0.7-0.7l2-2.9c0.8,1,0.8,1,2.9,3.1
			c2.7,2.8,4.3,4.4,4.9,5c3.5,3.5,7.6,7.5,8.3,8l-2.4,2.4c-0.9-1-1.3-1.4-6.1-6.3c-1.7,1.5-2.4,2.1-3.6,2.8c-3,1.7-5.9,2.1-9.2,1.3
			c-0.6-0.1-1.1-0.3-1.4-0.4L160.6,75.4z M183.9,74.3c-0.5-0.6-4.3-4.4-5.2-5.4c-2.5-2.5-4.3-4.3-5.1-4.8l2.1-2.9
			c0.8,1,3.1,3.5,5.7,6c2,2,4.2,4.1,5.2,4.9L183.9,74.3z"/>
		<g>
			<path d="M149.4,55.6c0.4-0.9,0.9-2.6,1-3.2c0.1-0.5,0.1-0.8,0.2-0.9l2.5,0.6c0,0.3-0.1,0.7-0.2,1.4c-0.2,1.2-0.6,2.5-0.9,3
				L149.4,55.6z M145.4,61c4,1.2,6.9,1.3,10.4,0.2c2-0.6,3.8-1.5,4.9-2.5l1,3.2c-4,1.5-7.7,2.6-10.5,2.6c-1.5,0-4.3-0.4-5.3-0.7
				L145.4,61z"/>
			<path d="M153.5,58c0.4-0.9,0.9-2.6,1-3.2c0.1-0.5,0.1-0.8,0.2-0.9l2.5,0.6c0,0.3-0.1,0.7-0.2,1.4c-0.2,1.2-0.6,2.5-0.9,3
				L153.5,58z"/>
		</g>
	</g>
	<path d="M196.9,67.7L131,1.8H39L1.6,39.2l0,0c-0.4,0.4-0.9,0.4-1.3,0l0,0c-0.4-0.4-0.4-0.9,0-1.3l0,0L37.9,0.3L38.6,0h92.7l0.6,0.3
		l66.2,66.2c0.4,0.4,0.4,0.9,0,1.3l0,0c-0.2,0.2-0.4,0.3-0.6,0.3l0,0C197.3,68,197,67.9,196.9,67.7L196.9,67.7z"/>
	<g>
		<path d="M131.8,58.2c0,0.4,0.4,0.8,0.8,0.8c0.4,0,0.8-0.4,0.8-0.8s-0.4-0.8-0.8-0.8C132.2,57.4,131.8,57.7,131.8,58.2z
			 M132.2,58.2c0-0.2,0.2-0.3,0.3-0.3s0.3,0.2,0.3,0.3s-0.2,0.3-0.3,0.3S132.2,58.4,132.2,58.2z"/>
	</g>
	<g>
		<path d="M133.3,59.7c0,0.4,0.4,0.8,0.8,0.8s0.8-0.4,0.8-0.8s-0.4-0.8-0.8-0.8C133.6,58.9,133.3,59.3,133.3,59.7z M133.7,59.7
			c0-0.2,0.2-0.3,0.3-0.3s0.3,0.2,0.3,0.3s-0.2,0.3-0.3,0.3C133.9,60.1,133.7,59.9,133.7,59.7z"/>
	</g>
</g>
</svg>
